<svg aria-hidden="true" style="position: absolute; width: 0; height: 0; overflow: hidden;" version="1.1" xmlns="http://www.w3.org/2000/svg" xmlns:xlink="http://www.w3.org/1999/xlink">
<defs>
<symbol id="icon-play_arrow" viewBox="0 0 24 24">
<path d="M8.016 5.016l10.969 6.984-10.969 6.984v-13.969z"></path>
</symbol>
<symbol id="icon-email" viewBox="0 0 24 24">
<path d="M20.016 8.016v-2.016l-8.016 5.016-8.016-5.016v2.016l8.016 4.969zM20.016 3.984q0.797 0 1.383 0.609t0.586 1.406v12q0 0.797-0.586 1.406t-1.383 0.609h-16.031q-0.797 0-1.383-0.609t-0.586-1.406v-12q0-0.797 0.586-1.406t1.383-0.609h16.031z"></path>
</symbol>
<symbol id="icon-location_on" viewBox="0 0 24 24">
<path d="M12 11.484q1.031 0 1.758-0.727t0.727-1.758-0.727-1.758-1.758-0.727-1.758 0.727-0.727 1.758 0.727 1.758 1.758 0.727zM12 2.016q2.906 0 4.945 2.039t2.039 4.945q0 1.453-0.727 3.328t-1.758 3.516-2.039 3.070-1.711 2.273l-0.75 0.797q-0.281-0.328-0.75-0.867t-1.688-2.156-2.133-3.141-1.664-3.445-0.75-3.375q0-2.906 2.039-4.945t4.945-2.039z"></path>
</symbol>
<symbol id="icon-phone" viewBox="0 0 24 24">
<path d="M6.609 10.781q2.25 4.359 6.609 6.609l2.203-2.203q0.469-0.469 1.031-0.234 1.688 0.563 3.563 0.563 0.422 0 0.703 0.281t0.281 0.703v3.516q0 0.422-0.281 0.703t-0.703 0.281q-7.031 0-12.023-4.992t-4.992-12.023q0-0.422 0.281-0.703t0.703-0.281h3.516q0.422 0 0.703 0.281t0.281 0.703q0 1.875 0.563 3.563 0.188 0.609-0.234 1.031z"></path>
</symbol>
<symbol id="icon-menu" viewBox="0 0 24 24">
<path d="M3 6h18v2.016h-18v-2.016zM3 12.984v-1.969h18v1.969h-18zM3 18v-2.016h18v2.016h-18z"></path>
</symbol>
<symbol id="icon-search-normal-14" viewBox="0 0 24 24">
<path d="M11.5 21.75c-5.65 0-10.25-4.6-10.25-10.25s4.6-10.25 10.25-10.25c5.65 0 10.25 4.6 10.25 10.25s-4.6 10.25-10.25 10.25zM11.5 2.75c-4.83 0-8.75 3.93-8.75 8.75s3.92 8.75 8.75 8.75c4.83 0 8.75-3.93 8.75-8.75s-3.92-8.75-8.75-8.75zM22 22.75c-0.19 0-0.38-0.070-0.53-0.22l-2-2c-0.29-0.29-0.29-0.77 0-1.060s0.77-0.29 1.060 0l2 2c0.29 0.29 0.29 0.77 0 1.060-0.15 0.15-0.34 0.22-0.53 0.22z"></path>
</symbol>
<symbol id="icon-facebook" viewBox="0 0 24 24">
<path d="M14.25 4.5h3.75v-4.5h-3.75c-2.895 0-5.25 2.355-5.25 5.25v2.25h-3v4.5h3v12h4.5v-12h3.75l0.75-4.5h-4.5v-2.25c0-0.407 0.343-0.75 0.75-0.75z"></path>
</symbol>
<symbol id="icon-instagram" viewBox="0 0 24 24">
<path d="M12 2.161c3.206 0 3.586 0.014 4.847 0.070 1.172 0.052 1.805 0.248 2.227 0.413 0.558 0.216 0.961 0.478 1.378 0.895 0.422 0.422 0.68 0.82 0.9 1.378 0.164 0.422 0.361 1.059 0.413 2.227 0.056 1.266 0.070 1.645 0.070 4.847s-0.014 3.586-0.070 4.847c-0.052 1.172-0.248 1.805-0.413 2.227-0.216 0.558-0.478 0.961-0.895 1.378-0.422 0.422-0.82 0.68-1.378 0.9-0.422 0.164-1.059 0.361-2.227 0.413-1.266 0.056-1.645 0.070-4.847 0.070s-3.586-0.014-4.847-0.070c-1.172-0.052-1.805-0.248-2.227-0.413-0.558-0.216-0.961-0.478-1.378-0.895-0.422-0.422-0.68-0.82-0.9-1.378-0.164-0.422-0.361-1.059-0.412-2.227-0.056-1.266-0.070-1.645-0.070-4.847s0.014-3.586 0.070-4.847c0.052-1.172 0.248-1.805 0.412-2.227 0.216-0.558 0.478-0.961 0.895-1.378 0.422-0.422 0.82-0.68 1.378-0.9 0.422-0.164 1.059-0.361 2.227-0.413 1.261-0.056 1.641-0.070 4.847-0.070zM12 0c-3.258 0-3.666 0.014-4.945 0.070-1.275 0.056-2.152 0.262-2.911 0.558-0.792 0.309-1.463 0.717-2.128 1.387-0.67 0.666-1.078 1.336-1.388 2.123-0.295 0.764-0.502 1.636-0.558 2.911-0.056 1.284-0.070 1.692-0.070 4.95s0.014 3.666 0.070 4.945c0.056 1.275 0.262 2.152 0.558 2.911 0.309 0.792 0.717 1.462 1.388 2.128 0.666 0.666 1.336 1.078 2.123 1.383 0.764 0.295 1.636 0.502 2.911 0.558 1.28 0.056 1.688 0.070 4.945 0.070s3.666-0.014 4.945-0.070c1.275-0.056 2.152-0.262 2.911-0.558 0.788-0.305 1.458-0.717 2.123-1.383s1.078-1.336 1.383-2.123c0.295-0.764 0.502-1.636 0.558-2.911 0.056-1.28 0.070-1.688 0.070-4.945s-0.014-3.666-0.070-4.945c-0.056-1.275-0.262-2.152-0.558-2.911-0.295-0.797-0.703-1.467-1.373-2.133-0.666-0.666-1.336-1.078-2.123-1.383-0.764-0.295-1.636-0.502-2.911-0.558-1.284-0.061-1.692-0.075-4.95-0.075v0z"></path>
<path d="M12 5.836c-3.403 0-6.164 2.761-6.164 6.164s2.761 6.164 6.164 6.164 6.164-2.761 6.164-6.164c0-3.403-2.761-6.164-6.164-6.164zM12 15.998c-2.208 0-3.998-1.791-3.998-3.998s1.791-3.998 3.998-3.998c2.208 0 3.998 1.791 3.998 3.998s-1.791 3.998-3.998 3.998z"></path>
<path d="M19.847 5.592c0 0.795-0.644 1.439-1.439 1.439s-1.439-0.644-1.439-1.439c0-0.795 0.644-1.439 1.439-1.439s1.439 0.644 1.439 1.439z"></path>
</symbol>
<symbol id="icon-twitter" viewBox="0 0 24 24">
<path d="M24 5.306c-0.881 0.394-1.833 0.656-2.827 0.773 1.017-0.609 1.795-1.575 2.166-2.723-0.952 0.563-2.006 0.975-3.127 1.195-0.9-0.956-2.18-1.552-3.595-1.552-2.719 0-4.922 2.203-4.922 4.922 0 0.384 0.042 0.759 0.127 1.12-4.092-0.206-7.72-2.166-10.148-5.147-0.422 0.727-0.666 1.575-0.666 2.475 0 1.706 0.867 3.216 2.189 4.097-0.806-0.023-1.566-0.248-2.231-0.614 0 0.019 0 0.042 0 0.061 0 2.386 1.697 4.378 3.952 4.828-0.412 0.112-0.848 0.173-1.298 0.173-0.319 0-0.623-0.033-0.928-0.089 0.628 1.955 2.447 3.38 4.598 3.422-1.688 1.322-3.806 2.109-6.117 2.109-0.398 0-0.788-0.023-1.177-0.070 2.184 1.402 4.772 2.212 7.552 2.212 9.056 0 14.011-7.505 14.011-14.011 0-0.216-0.005-0.427-0.014-0.637 0.961-0.689 1.795-1.556 2.456-2.545z"></path>
</symbol>
</defs>
</svg>
